v -0.5000000000000024 -0.4999999999999983 -0.4999999988258483
v 0.49999999999999806 -0.5000000000000023 -0.4999999988258484
v 0.5000000000000022 0.499999999999998 -0.49999999882584845
v -0.4999999999999981 0.5000000000000026 -0.4999999988258485
v -0.49999999999999817 -0.5000000000000023 0.8499999988258482
v 0.5000000000000026 -0.4999999999999981 0.8499999988258484
v 0.499999999999998 0.5000000000000023 0.8499999988258484
v -0.5000000000000024 0.4999999999999981 0.8499999988258483
f 1 2 3
f 1 3 4
f 5 7 6
f 5 8 7
f 1 5 6
f 1 6 2
f 2 6 7
f 2 7 3
f 3 7 8
f 3 8 4
f 4 8 5
f 4 5 1
